<mxfile host="app.diagrams.net" modified="2021-08-02T08:19:37.961Z" agent="5.0 (Macintosh; Intel Mac OS X 10_15_7) AppleWebKit/537.36 (KHTML, like Gecko) Chrome/92.0.4515.107 Safari/537.36" etag="JayxgnuiMcw2EsYWIyG2" version="14.9.3" type="github">
  <diagram id="v45zaXoIDQoR_jljNTwW" name="第 1 页">
    <mxGraphModel dx="949" dy="611" grid="1" gridSize="10" guides="1" tooltips="1" connect="1" arrows="1" fold="1" page="1" pageScale="1" pageWidth="827" pageHeight="1169" math="0" shadow="0">
      <root>
        <mxCell id="0" />
        <mxCell id="1" parent="0" />
        <mxCell id="HZ5DjFv8WNAbvtI_mtKF-3" style="edgeStyle=orthogonalEdgeStyle;rounded=0;orthogonalLoop=1;jettySize=auto;html=1;exitX=0.5;exitY=1;exitDx=0;exitDy=0;entryX=0.5;entryY=0;entryDx=0;entryDy=0;" edge="1" parent="1" source="HZ5DjFv8WNAbvtI_mtKF-1" target="HZ5DjFv8WNAbvtI_mtKF-2">
          <mxGeometry relative="1" as="geometry" />
        </mxCell>
        <mxCell id="HZ5DjFv8WNAbvtI_mtKF-1" value="入组" style="rounded=0;whiteSpace=wrap;html=1;" vertex="1" parent="1">
          <mxGeometry x="350" y="120" width="120" height="60" as="geometry" />
        </mxCell>
        <mxCell id="HZ5DjFv8WNAbvtI_mtKF-12" style="edgeStyle=orthogonalEdgeStyle;rounded=0;orthogonalLoop=1;jettySize=auto;html=1;exitX=0.5;exitY=1;exitDx=0;exitDy=0;entryX=0.5;entryY=0;entryDx=0;entryDy=0;" edge="1" parent="1" source="HZ5DjFv8WNAbvtI_mtKF-2" target="HZ5DjFv8WNAbvtI_mtKF-7">
          <mxGeometry relative="1" as="geometry" />
        </mxCell>
        <mxCell id="HZ5DjFv8WNAbvtI_mtKF-2" value="提交信息" style="rounded=0;whiteSpace=wrap;html=1;" vertex="1" parent="1">
          <mxGeometry x="350" y="320" width="120" height="60" as="geometry" />
        </mxCell>
        <mxCell id="HZ5DjFv8WNAbvtI_mtKF-4" value="证明用药人是否患此病，符合初步诊断" style="shape=document;whiteSpace=wrap;html=1;boundedLbl=1;" vertex="1" parent="1">
          <mxGeometry x="506" y="320" width="120" height="80" as="geometry" />
        </mxCell>
        <mxCell id="HZ5DjFv8WNAbvtI_mtKF-18" style="edgeStyle=orthogonalEdgeStyle;rounded=0;orthogonalLoop=1;jettySize=auto;html=1;exitX=0.5;exitY=1;exitDx=0;exitDy=0;entryX=0.5;entryY=0;entryDx=0;entryDy=0;" edge="1" parent="1" source="HZ5DjFv8WNAbvtI_mtKF-7" target="HZ5DjFv8WNAbvtI_mtKF-17">
          <mxGeometry relative="1" as="geometry" />
        </mxCell>
        <mxCell id="HZ5DjFv8WNAbvtI_mtKF-7" value="if 通过" style="rhombus;whiteSpace=wrap;html=1;" vertex="1" parent="1">
          <mxGeometry x="370" y="430" width="80" height="80" as="geometry" />
        </mxCell>
        <mxCell id="HZ5DjFv8WNAbvtI_mtKF-11" value="" style="endArrow=none;html=1;exitX=0;exitY=0.5;exitDx=0;exitDy=0;" edge="1" parent="1" source="HZ5DjFv8WNAbvtI_mtKF-7">
          <mxGeometry width="50" height="50" relative="1" as="geometry">
            <mxPoint x="366" y="500" as="sourcePoint" />
            <mxPoint x="410" y="280" as="targetPoint" />
            <Array as="points">
              <mxPoint x="276" y="470" />
              <mxPoint x="276" y="280" />
            </Array>
          </mxGeometry>
        </mxCell>
        <mxCell id="HZ5DjFv8WNAbvtI_mtKF-20" style="edgeStyle=orthogonalEdgeStyle;rounded=0;orthogonalLoop=1;jettySize=auto;html=1;exitX=0.5;exitY=1;exitDx=0;exitDy=0;entryX=0.5;entryY=0;entryDx=0;entryDy=0;" edge="1" parent="1" source="HZ5DjFv8WNAbvtI_mtKF-17" target="HZ5DjFv8WNAbvtI_mtKF-19">
          <mxGeometry relative="1" as="geometry" />
        </mxCell>
        <mxCell id="HZ5DjFv8WNAbvtI_mtKF-22" style="edgeStyle=orthogonalEdgeStyle;rounded=0;orthogonalLoop=1;jettySize=auto;html=1;exitX=1;exitY=0.5;exitDx=0;exitDy=0;entryX=0.5;entryY=0;entryDx=0;entryDy=0;" edge="1" parent="1" source="HZ5DjFv8WNAbvtI_mtKF-17" target="HZ5DjFv8WNAbvtI_mtKF-21">
          <mxGeometry relative="1" as="geometry" />
        </mxCell>
        <mxCell id="HZ5DjFv8WNAbvtI_mtKF-17" value="if 购药" style="rhombus;whiteSpace=wrap;html=1;" vertex="1" parent="1">
          <mxGeometry x="370" y="580" width="80" height="80" as="geometry" />
        </mxCell>
        <mxCell id="HZ5DjFv8WNAbvtI_mtKF-19" value="" style="rounded=0;whiteSpace=wrap;html=1;" vertex="1" parent="1">
          <mxGeometry x="170" y="740" width="120" height="60" as="geometry" />
        </mxCell>
        <mxCell id="HZ5DjFv8WNAbvtI_mtKF-21" value="" style="rounded=0;whiteSpace=wrap;html=1;" vertex="1" parent="1">
          <mxGeometry x="590" y="740" width="120" height="60" as="geometry" />
        </mxCell>
      </root>
    </mxGraphModel>
  </diagram>
</mxfile>
